<svg width="497" height="497" viewBox="0 0 497 497" fill="none" xmlns="http://www.w3.org/2000/svg">
  <circle cx="248.5" cy="248.5" r="248.5" fill="#F5DD00"/>
  <path d="M168.732 326H129.879V258.312H72.3223V326H33.2461V163.906H72.3223V228.254H129.879V163.906H168.732V326ZM248.666 265.66L232.635 283.25V326H193.559V163.906H232.635V235.379L246.217 214.783L281.174 163.906H329.49L274.717 235.602L329.49 326H283.178L248.666 265.66ZM339.398 326V163.906H391.611C405.936 163.906 418.812 167.172 430.242 173.703C441.672 180.16 450.578 189.326 456.961 201.201C463.418 213.002 466.684 226.25 466.758 240.945V248.404C466.758 263.248 463.604 276.57 457.295 288.371C451.061 300.098 442.229 309.301 430.799 315.98C419.443 322.586 406.752 325.926 392.725 326H339.398ZM378.475 194.076V295.941H392.057C403.264 295.941 411.873 291.971 417.885 284.029C423.896 276.014 426.902 264.139 426.902 248.404V241.391C426.902 225.73 423.896 213.93 417.885 205.988C411.873 198.047 403.115 194.076 391.611 194.076H378.475Z" fill="black"/>
</svg>
